<?xml version="1.0" encoding="UTF-8"?>
<svg width="100px" height="80px" viewBox="0 0 100 80" version="1.1" xmlns="http://www.w3.org/2000/svg" xmlns:xlink="http://www.w3.org/1999/xlink">
    <g id="taskBpmn" stroke="none" stroke-width="1" fill="none" fill-rule="evenodd">
        <rect id="矩形备份" stroke="#CDCDCD" fill="#F9F9F9" x="0.5" y="0.5" width="99" height="79" rx="6"></rect>
        <g id="头像备份" transform="translate(4.000000, 4.000000)">
            <rect id="矩形" x="0" y="0" width="16" height="16"></rect>
            <path d="M9.96956349,8.96061791 C9.8809411,8.72141876 9.79231872,8.4802683 9.79231872,8.39993903 C9.96956349,8.31960973 10.0562346,8.23928046 10.233642,7.99991869 C10.4977204,7.76071954 11.0278287,6.71952843 11.2050734,5.99981707 C11.3824808,5.68028864 11.6465593,5.11960974 11.6465593,4.7999187 C11.6465593,4.56071955 11.5579369,4.31956909 11.4693145,4.16069923 C11.6465593,3.36065858 11.5579369,2.64110982 11.2917445,1.99993902 L11.9106377,0.96086184 L11.3805295,0.96086184 L11.3805295,0.880369945 C11.116451,0.560678902 10.5863428,0.160658568 8.55664617,0 L7.23056253,0 C6.34287902,0.101309119 5.52456863,0.529039887 4.93467352,1.20006097 C4.31594288,1.91960973 4.14064943,2.88030895 4.31594288,4.16069923 C4.22732049,4.3213578 4.05186443,4.56071955 4.13869811,4.7999187 C4.13869811,5.11960974 4.40261396,5.76061792 4.58002134,5.99997967 C4.75726611,6.71952843 5.28542303,7.76071954 5.55145282,8.00008131 C5.72886021,8.23911784 5.81553127,8.31960973 5.99293866,8.39993903 C5.99293866,8.48026832 5.90431627,8.79995934 5.81569389,8.96061791 C2.98953402,9.44113014 0.96,10.7998984 0.96,12.3998171 C0.96,14.3999187 4.13837289,16 8.0224727,16 C11.9065725,16 15.0851131,14.3999187 15.0851131,12.3998171 C15.0890106,10.7195691 12.8819066,9.36063825 9.96940089,8.96061791" id="路径" fill="#D1B576" fill-rule="nonzero"></path>
        </g>
        <path d="M46,69 C46.5522847,69 47,69.4477153 47,70 L47,76 C47,76.5522847 46.5522847,77 46,77 C45.4477153,77 45,76.5522847 45,76 L45,70 C45,69.4477153 45.4477153,69 46,69 Z M50,69 C50.5522847,69 51,69.4477153 51,70 L51,76 C51,76.5522847 50.5522847,77 50,77 C49.4477153,77 49,76.5522847 49,76 L49,70 C49,69.4477153 49.4477153,69 50,69 Z M54,69 C54.5522847,69 55,69.4477153 55,70 L55,76 C55,76.5522847 54.5522847,77 54,77 C53.4477153,77 53,76.5522847 53,76 L53,70 C53,69.4477153 53.4477153,69 54,69 Z" id="形状结合" fill="#C0C4CC" display="none"></path>
        <path d="M46,66 C46.5522847,66 47,66.4477153 47,67 L47,75 C47,75.5522847 46.5522847,76 46,76 C45.4477153,76 45,75.5522847 45,75 L45,67 C45,66.4477153 45.4477153,66 46,66 Z M50,66 C50.5522847,66 51,66.4477153 51,67 L51,75 C51,75.5522847 50.5522847,76 50,76 C49.4477153,76 49,75.5522847 49,75 L49,67 C49,66.4477153 49.4477153,66 50,66 Z M54,66 C54.5522847,66 55,66.4477153 55,67 L55,75 C55,75.5522847 54.5522847,76 54,76 C53.4477153,76 53,75.5522847 53,75 L53,67 C53,66.4477153 53.4477153,66 54,66 Z" id="形状结合" fill="#C0C4CC" transform="translate(50.000000, 71.000000) rotate(-270.000000) translate(-50.000000, -71.000000) " display="none"></path>
        <path d="M53.1351187,66.5492502 C53.7376938,65.9466751 54.7494063,66.3286892 54.8362422,67.142726 L54.8422255,67.2563569 L54.8422255,75.7416383 C54.8422255,76.5938082 53.8567119,77.0390721 53.2196987,76.5248635 L53.1351187,76.4487451 L50.8415848,74.1553522 L50.8422255,75.7416383 C50.8422255,76.5938082 49.8567119,77.0390721 49.2196987,76.5248635 L49.1351187,76.4487451 L44.892478,72.2061044 C44.5319941,71.8456204 44.5042645,71.2783894 44.8092894,70.8860982 L44.892478,70.7918908 L49.1351187,66.5492502 C49.7376938,65.9466751 50.7494063,66.3286892 50.8362422,67.142726 L50.8422255,67.2563569 L50.8415848,68.8423522 L53.1351187,66.5492502 Z M48.8419235,69.6699665 L47.0133453,71.4985446 L48.8419235,73.3271227 L48.8419235,69.6699665 Z M52.8419235,69.6699665 L51.0133453,71.4985446 L52.8419235,73.3271227 L52.8419235,69.6699665 Z" id="形状" fill="#C0C4CC" fill-rule="nonzero" display="none"></path>
    </g>
</svg>
