<?xml version="1.0" standalone="no"?><!DOCTYPE svg PUBLIC "-//W3C//DTD SVG 1.1//EN" "http://www.w3.org/Graphics/SVG/1.1/DTD/svg11.dtd"><svg t="1641452606594" class="icon" viewBox="0 0 1024 1024" version="1.1" xmlns="http://www.w3.org/2000/svg" p-id="12278" xmlns:xlink="http://www.w3.org/1999/xlink" width="200" height="200"><defs><style type="text/css"></style></defs><path d="M112 560a48 48 0 0 1 47.552 41.472L160 608l0.064 256H416a48 48 0 0 1 47.552 41.472l0.448 6.528a48 48 0 0 1-41.472 47.552L416 960H128a64 64 0 0 1-64-64V608a48 48 0 0 1 48-48zM896 64a64 64 0 0 1 64 64v288a48 48 0 0 1-95.552 6.528L864 416l-0.064-256H608a48 48 0 0 1-47.552-41.472L560 112a48 48 0 0 1 41.472-47.552L608 64H896z" fill="#ffffff" p-id="12279"></path></svg>