<?xml version="1.0" standalone="no"?><!DOCTYPE svg PUBLIC "-//W3C//DTD SVG 1.1//EN" "http://www.w3.org/Graphics/SVG/1.1/DTD/svg11.dtd"><svg t="1641452274381" class="icon" viewBox="0 0 1024 1024" version="1.1" xmlns="http://www.w3.org/2000/svg" p-id="11831" xmlns:xlink="http://www.w3.org/1999/xlink" width="200" height="200"><defs><style type="text/css"></style></defs><path d="M416 960a48 48 0 0 1-47.552-41.472l-0.448-6.528-0.064-256H112a48 48 0 0 1-47.552-41.472L64 608a48 48 0 0 1 41.472-47.552l6.528-0.448h288a64 64 0 0 1 64 64v288a48 48 0 0 1-48 48z m208-496a64 64 0 0 1-64-64v-288a48 48 0 0 1 95.552-6.528l0.448 6.528 0.064 256h255.936a48 48 0 0 1 47.552 41.472L960 416a48 48 0 0 1-41.472 47.552l-6.528 0.448h-288z" fill="#ffffff" p-id="11832"></path></svg>